<svg width="48" height="48" viewBox="0 0 48 48" fill="none" xmlns="http://www.w3.org/2000/svg">
<path d="M44 38.4444C44 41.5133 41.5133 44 38.4444 44H9.55556C6.48778 44 4 41.5133 4 38.4444V9.55556C4 6.48667 6.48778 4 9.55556 4H38.4444C41.5133 4 44 6.48667 44 9.55556V38.4444Z" fill="#0288D1"/>
<path d="M11 18.5833H16.4167V37H11V18.5833ZM13.6921 16.4167H13.6617C12.0454 16.4167 11 15.212 11 13.7072C11 12.17 12.0779 11 13.7235 11C15.3713 11 16.3863 12.17 16.4167 13.7072C16.4167 15.2109 15.3712 16.4167 13.6921 16.4167ZM37 37H31.5833V27.1427C31.5833 24.7616 30.2563 23.1366 28.1253 23.1366C26.4993 23.1366 25.6196 24.2329 25.1928 25.2924C25.0368 25.6716 25.0833 26.7203 25.0833 27.25V37H19.6667V18.5833H25.0833V21.4173C25.8644 20.2083 27.0875 18.5833 30.2162 18.5833C34.0923 18.5833 36.9989 21.0208 36.9989 26.4635L37 37Z" fill="white"/>
</svg>
